<svg xmlns="http://www.w3.org/2000/svg" viewBox="0 0 378.91 338.92"><defs><style>.cls-1{fill:#fff;}</style></defs><title>资源 2</title><g id="图层_2" data-name="图层 2"><g id="图层_1-2" data-name="图层 1"><path class="cls-1" d="M.15.53H349.4c11.85,0,23.47-3.05,27.72,5.45,4,8.08,0,28.91,0,38.13q0,68.09,0,136.19t0,136.19c0,3.53,1.31,20.47,0,21.79s-14.37,0-16.63,0H16.78C-2.73,338.27.15,335,.15,316.48Q.15,158.51.15.53ZM1.71,19.87c.24,10.08,52.11,20.4,62,24.72C77,50.36,101.1,63.82,106,78.69c3.23,9.84-5.21,21.51-7.27,30.93-2.68,12.25-2.82,24.27.87,36.34C105.71,166,119.65,187.76,132.7,204c26.36,32.85,72.85,63.71,114.71,70.8,20.92,3.54,39.94,4,58.95,14.87,16.93,9.66,27.69,24.63,42.06,37.08-1.25-5.24-8.57-26.39-5-29,3-2.2,25.43,29.66,28.32,33.41,4.69-15.48-20.26-55.84-25.71-71.31-9-25.48-17.13-51.25-26.26-76.68-7.35-20.48-14.88-41.1-27.67-58.92-13.28-18.51-32.53-31.37-45.26-50.4-12.36-18.48-16.46-41.15-34.66-55.59C194.88,4.52,170.34-.43,148.82,2.86,123.87,6.68,102.33,20.32,76.53,21.3,51.48,22.26,26.75,16.7,1.71,19.87Z"/><path d="M1.71,19.87c25-3.17,49.77,2.39,74.82,1.43,25.8-1,47.34-14.63,72.29-18.44,21.43-3.28,46.12,1.7,63.41,15.42,18.19,14.44,22.3,37.1,34.66,55.59,12.73,19,32,31.84,45.26,50.4,12.72,17.88,20.31,38.42,27.67,58.92,9.13,25.43,17.29,51.2,26.26,76.68,5.45,15.47,30.4,55.83,25.71,71.31-3.62-4.67-25.62-35.42-28.32-33.41-3.79,2.82,3.84,24.33,5,29-14.37-12.45-25.13-27.43-42.06-37.08-17.59-10-35-11.21-54.48-14.11-43.74-6.53-91.66-37.27-119.17-71.56-13.05-16.27-27-38-33.13-58.08-3.69-12.07-3.55-24.09-.87-36.34,1.88-8.58,9.21-19,7.63-27.88-2.93-16.39-28.53-31-42.58-37.14C53.82,40.27,1.95,30,1.71,19.87Zm109.64,6.35c3,3.25,15.79,13.6,13.32,19.27-4.28,9.85-24.44-.92-29,5.77-8,11.6,36.68,26.59,31.5,35.41l-11.72-4.36c-11.86,41.57-9.85,72.1,16,107.92,20.84,28.92,57.89,60.24,91.52,73.07,9.27,3.54,45,8,48.18-8.6,1.8-9.47-30.14-29.36-36.06-35.16-27.55-27-50.68-62-66-97.32,39.58,59.4,87.86,113.49,150.42,149.22-1.78-6-15.91-54.92-7.46-56.91l15.26,37c7.1-9.21-7.86-41-11.32-51.57-7.41-22.73-16.73-44.77-29.69-64.92-10.92-17-24-32.63-39.93-45.08-5.51-4.29-44.24-23-38.9-30.82l19.78,9.05C220.63,5.47,156.75,4.8,111.35,26.22ZM119,43.56C105.15,24.3,71.39,31,51,31,73,39.49,94.86,49.38,119,43.56ZM266.87,266.35c9,3.4,56.91,26.33,62.57,19.21C307.9,273.83,290.26,251.86,266.87,266.35Z"/><path class="cls-1" d="M111.35,26.22C156.8,4.78,220.63,5.51,227.23,68.17l-19.78-9.05c-5.51,8,29.77,23.95,35.56,28.2,17.46,12.83,31.61,29.55,43.27,47.69,12.1,18.81,21,39.26,28.17,60.42C318,206,334.65,242,327.29,251.5l-15.26-37c-8.45,2,5.68,50.88,7.46,56.91-62.56-35.73-110.85-89.82-150.42-149.22,14.7,34,36.68,67.42,62.58,94,6.79,7,39.84,27.41,39.44,38.49-.6,16.57-39.91,11.75-48.18,8.6C190.59,251,154.58,221,134,193.68c-27.64-36.6-30.93-68-18.55-111.37l11.72,4.36c5.16-8.78-39.49-24-31.5-35.41,4.41-6.32,23.43,3.69,27.76-4.51C127.16,39.63,115.75,31,111.35,26.22Zm40.72,5.86C137.72,49.48,166.53,49.31,152.06,32.08Z"/><path class="cls-1" d="M119,43.56C94.86,49.38,73,39.49,51,31,71.55,31,105,24,119,43.56Z"/><path class="cls-1" d="M266.87,266.35c23.39-14.49,41,7.48,62.57,19.21C323.78,292.68,275.92,269.75,266.87,266.35Z"/><path d="M152.06,32.08C166.53,49.31,137.72,49.48,152.06,32.08Z"/></g></g></svg>