<svg xmlns="http://www.w3.org/2000/svg" viewBox="0 0 510.39 272.99"><defs><style>.cls-1{fill:#fff;}</style></defs><title>资源 1</title><g id="图层_2" data-name="图层 2"><g id="图层_1-2" data-name="图层 1"><path class="cls-1" d="M509.38,272.5H23.11c-10.68,0-17.94,2.88-22.1-5.44-2.26-4.52,0-16.6,0-21.76q0-24.48,0-49Q1,98.41,1,.48H487.28c10.68,0,17.94-2.88,22.1,5.44,2.26,4.52,0,16.6,0,21.76q0,24.48,0,49Q509.38,174.58,509.38,272.5ZM255.9,178.61c4.75-2.19,14.87,15.35,18,19.48,2.18-8.26-27.05-49.49-8-50.72,10.77-.69,17.11,48.15,19.36,57.58,1.7,7.14,1.51,19.37,13.71,8.18,7.41-6.8.84-11.71.54-21.16-.43-13.49,5.59-29.39,8.2-42.63,3.16-16,3.93-18.18,19.6-22.87a529.72,529.72,0,0,1-2.46,54.48c-.78,7.59-2.72,26.32,12.42,15.61,18.58-13.15-17.84-79.21,18.45-76.59,14.33,1,8.23,18,8.36,31.5.05,5.24-2.87,40.41,6.53,35.08,8.38-4.75,4.77-36.65,5.27-45.81,1.21-22.27-1.35-23.4,21.23-27.5,2.45,17.78.79,36.4.89,54.29.07,11.79,6.35,29.1,15.6,9,6.53-14.14.68-48.91-.78-64.08C410.38,87,399.92,94.39,377.93,98.4l2.48-51c-17.94,6.47-19.64,10.86-18.87,29.51,1.11,26.69,5.57,25.9-20.72,32.75V70.69c-11.24,1.22-13.34,5.66-14.8,15.63-.85,5.82,1.82,12.21.83,18-2.18,12.79-.68,9.43-14.32,12.43,0-4.57,3-27.66-2.7-29.53C299,83.63,296,102.47,295.33,108.27c-1,8.26,2.84,18.16-11.19,18.08-9.13-.05-12.63-21.23-16.19-30.68L252.79,55.44c-3.4-9-8-34.57-15.4-40.4-7.2-5.7-5.65-3.51-12.43,3.34-8.59,8.68-15.72,20.36-24.14,29.56C188.61,24.49,178.17.65,147.39,1.28c-14.67.3-27.62,8.59-42,10.67-17.51,2.54-35.18-2.63-52.67.23C57.5,23.7,95.16,26.69,106.08,37c16.27,15.33,1.15,25.75,4.36,46,1.72,10.86,8.05,22,14.25,30.9,4,5.75,14.3,12.47,16.46,18.2,5.32,14.15-21.29,38.43-33.19,48.13-16.77,13.67-36.64,27.06-55.16,38.32-11.07,6.72-48.62,18.52-50.37,32-3.11,24,32.71-1.75,38.3-5.29C60.88,232.5,81.94,221,102.49,208.84c-3.29,9.14-10.81,18.11-16.7,25.76-3.41,4.42-25.46,23.49-25.13,27.95,1.06,14.4,30.14-7.26,35.54-13.34,13.09-14.73,12.84-38.34,27.63-51.12,13.54-11.7,45.19-24,62.24-21.52,1.14-8.93-.92-9.57-5.87-16.46,14.14,1.75,30.89,3.9,44.2,8.67,15.85,5.68,22.51,16.87,35.47,26.05Zm214.68,2.17c17.2-5.73,37.71-18.51,36.84-39.75-1.1-26.81-28.5-15.86-40.31-31.61C450.54,87.3,482.57,88,491.72,78.76c17.88-18.11-22.24-10.45-31.13-6.32-17.21,8-31.78,28.35-14,43.14,9.6,8,47,15.26,37.46,32.8-11.84,21.71-29.24-7.89-36.48-7-8.14,1-2.22,20.57-.61,23.5C451.93,173.9,460.94,178.52,470.59,180.77Zm-38.23-66.93c0-7.12-1.22-37.88-14.63-24.07-7.07,7.28,6.73,49.53,6,61.06-.47,7.34-4.16,49.29,11.65,29.35C442.65,171,433,125.93,432.36,113.84Zm-17.06-46C432.67,94.63,435.65,20.1,415.3,67.81Z"/><path d="M255.9,178.61l4,16.22c-12.73-9-19.74-20.41-35.47-26.05-13.18-4.73-30.28-7-44.2-8.67,4.94,6.88,7,7.53,5.87,16.46-17.05-2.44-48.69,9.82-62.24,21.52C109,210.86,109.29,234.46,96.2,249.2c-5.41,6.09-34.49,27.75-35.54,13.34-.33-4.46,21.72-23.53,25.13-27.95,5.9-7.64,13.42-16.62,16.7-25.76C81.93,221,61,232.65,40.71,245.26c-6.43,4-41.35,28.82-38.3,5.29,1.65-12.73,40.32-25.89,50.37-32,18.52-11.3,38.38-24.64,55.16-38.32,11.93-9.72,38.47-34,33.19-48.13-1.6-4.3-13.5-14-16.46-18.2-6.19-8.9-12.53-20-14.25-30.9-3.28-20.75,12.6-30.4-4.36-46-10.89-10-48.65-13.46-53.34-24.8,15.94-2.61,31.9,2,47.88.53,16.16-1.48,30.54-11.1,46.78-11.43,30.91-.63,41.19,23.17,53.42,46.67,8.46-9.23,25.89-39.56,35.6-34.5,6.2,3.23,11.91,30.16,14.47,36.94Q259.42,73,267.94,95.67c1.85,4.91,7.89,30.64,12.5,32.26,11.12,3.92,14.18-10.45,15.29-16,1.2-6-.51-25.95,11.89-24.29,8.46,1.13,4.92,22.35,4.92,29.09,8.13-1.79,11.94-.93,14.57-7.84,2.18-5.71-1.94-16.65-1.08-22.56,1.42-9.81,3.79-14.44,14.8-15.63v38.95c26-6.78,21.84-5.91,20.72-32.75-.77-18.53.4-22.85,18.87-29.51l-2.48,51c18-3.28,30-11.18,34.44,8.74,2.46,11,7.32,58.91,1.26,69.4-8.08,14-14.8,8.39-15.79-5.24-1.39-19.24,2-38.8-.7-58.09-21.5,3.91-20,5.79-21.23,27.5-.53,9.69,3,36.94-3.26,44.64-9.74,12-8.5-30.48-8.54-33.91-.14-13.84,5.42-30.15-8.36-31.5-34.83-3.41-2.38,61.31-16.81,75-14.84,14-14.89-5.9-14.06-14a528.74,528.74,0,0,0,2.46-54.48c-13.48,4-14.92,4.63-18.67,18.14-3.59,13-7.49,29.1-8.24,42.63-.43,7.69,4.9,19.19.54,24.61-11.4,14.19-14.05.11-15.68-6.89-2.12-9.09-7.09-56-17.65-58.55-19.37-4.64,7.35,47.73,6.3,51.7C270.78,194,260.65,176.41,255.9,178.61Zm-8.65-28.29c7.73-2.66-19.77-62.12-23.75-68.4-4.17-6.58-47-47.56-47.76-46.44l11.79,5.39C184.22,7.43,143.62-3,119.13,16.55,132.72,32,120,27.6,107.49,31.35c4.26,8,14,13.63,21,19.34-1.73,2.32-7.48-1.95-7.77-1.24A73.79,73.79,0,0,0,117,63.62c-2,11-1.88,20.39,2.22,30.88,9.86,25.2,35,45.23,57.75,58.25,8.55,4.89,18.45,10.55,28.46,5.13,14.13-7.65,1.46-13.11-7-21-19.25-17.84-34-40.45-45.91-63.63,23.92,35.37,52.77,67.62,90.18,89-1.23-4.06-9.68-32.62-4.43-34Zm15.86-16C251,103.23,242.49,70.72,226.74,41.16L216.14,52.47q-10.6,6,1.24,11.56c3.16,7.05,10.77,13.55,14.73,20.44,9.6,16.72,15.12,35.45,21.16,53.64ZM129,184.09l28.28-12.72c-13.49-11.05,17.43-7.24,7.65-21.55C151.31,129.88,132.71,173,129,184.09Zm163.37-13.88c1.46.06,10.22-31.72-.1-34C276.3,132.76,291.39,166.78,292.38,170.22ZM121.62,25.45c-10.8-11.15-25.27-4.37-37.81-7.24C95.69,24,107.55,29.73,121.62,25.45ZM247,172.7c3.2-3.43-9.88-9.08-13.72-11.14-10.57-5.67-11.05-9.18-22.08-2.27Zm-132.4,18c-1.32-2.08-21.43,9.42-19.77,12.16C101.18,198.15,110,197.58,114.64,190.65Z"/><path d="M470.59,180.77c-9.65-2.25-18.66-6.87-23.58-15.85-1.61-2.93-7.53-22.46.61-23.5,7.24-.93,24.64,28.67,36.48,7,9.47-17.35-28.71-25.12-37.46-32.8-17.25-15.16-3.71-34.95,14-43.14,8.92-4.13,49-11.82,31.13,6.32-9.28,9.45-41.09,8.66-24.61,30.64,11.81,15.75,39.21,4.8,40.31,31.61C508.3,162.26,487.79,175,470.59,180.77Z"/><path d="M432.36,113.84c.84,14.83,9.91,50.51,3.65,63.76-12.55,26.56-12.78-19-12.29-26.77a119.28,119.28,0,0,0-2.45-33c-1.19-5.66-8.3-20.35-4.29-26.08C429.38,74,432.36,105.56,432.36,113.84Z"/><path d="M415.3,67.81c2.92-6.84,11.8-26.14,17.38-10.12C436.82,69.53,423.12,79.88,415.3,67.81Z"/><path class="cls-1" d="M247.25,150.32l-9-22c-5.09,1.37,3.2,30,4.43,34-37.41-21.41-66.26-53.66-90.18-89,11.3,22,25.24,43.66,43.07,61,7.29,7.08,22.31,13.41,13.44,22.29-8.61,8.62-24.46.52-32-3.82-22.09-12.62-45-31.14-56.06-54.57a51.68,51.68,0,0,1-4.75-30.6c.43-3.22,1.79-12,3.79-15.49,3.18-5.6,5.45,2.73,8.53-1.39-7-5.74-16.67-11.22-21-19.34,12.21-3.65,25.66,1.16,11.64-14.79C143.64-3,184.22,7.42,187.53,40.87l-11.79-5.39c.49-.73,43.57,39.82,47.76,46.44C227.45,88.15,255,147.66,247.25,150.32ZM143,19.16C134.2,30,150.57,29.74,143,19.16Z"/><path class="cls-1" d="M263.11,134.29l-9.85,3.82c-6-18.18-11.56-36.92-21.16-53.64C228.38,78,220.3,70.58,217.37,64q-11.84-5.6-1.24-11.56l10.61-11.31C242.49,70.72,251,103.23,263.11,134.29Z"/><path class="cls-1" d="M129,184.09c3.69-11.06,22.29-54.21,35.93-34.27,9.79,14.31-21.14,10.5-7.65,21.55Z"/><path class="cls-1" d="M292.38,170.22c-.82-2.85-14.83-40.41-.1-34C299.84,139.55,295.07,170.32,292.38,170.22Z"/><path class="cls-1" d="M121.62,25.45C107.55,29.73,95.69,24,83.81,18.2,96.35,21.08,110.82,14.3,121.62,25.45Z"/><path class="cls-1" d="M247,172.7l-35.8-13.41c11-6.91,11.51-3.4,22.08,2.27C237.16,163.62,250.25,169.28,247,172.7Z"/><path class="cls-1" d="M114.64,190.65c-4.69,6.93-13.46,7.5-19.77,12.16C93.4,200.39,113.1,188.23,114.64,190.65Z"/><path d="M143,19.16C150.57,29.74,134.2,30,143,19.16Z"/></g></g></svg>